<mxfile host="app.diagrams.net" modified="2023-07-26T09:54:30.580Z" agent="Mozilla/5.0 (Macintosh; Intel Mac OS X 10_15_7) AppleWebKit/537.36 (KHTML, like Gecko) Chrome/114.0.0.0 YaBrowser/23.7.0.2562 Yowser/2.5 Safari/537.36" etag="u2wP4FTCYWtpnW2hJODf" version="21.5.0" type="github">
  <diagram name="shopping" id="bmTWLVl7lHP5WHelwrOG">
    <mxGraphModel dx="1428" dy="937" grid="1" gridSize="10" guides="1" tooltips="1" connect="1" arrows="1" fold="1" page="1" pageScale="1" pageWidth="827" pageHeight="1169" math="0" shadow="0">
      <root>
        <mxCell id="0" />
        <mxCell id="1" parent="0" />
        <mxCell id="vrYzodw-wXzMlCgV3lVE-1" value="shopping流程" style="swimlane;childLayout=stackLayout;resizeParent=1;resizeParentMax=0;startSize=20;html=1;" vertex="1" parent="1">
          <mxGeometry x="110" y="110" width="1180" height="745" as="geometry" />
        </mxCell>
        <mxCell id="vrYzodw-wXzMlCgV3lVE-2" value="api/portal" style="swimlane;startSize=20;html=1;" vertex="1" parent="vrYzodw-wXzMlCgV3lVE-1">
          <mxGeometry y="20" width="290" height="725" as="geometry" />
        </mxCell>
        <mxCell id="vrYzodw-wXzMlCgV3lVE-5" value="发起 shopping 请求" style="rounded=1;whiteSpace=wrap;html=1;" vertex="1" parent="vrYzodw-wXzMlCgV3lVE-2">
          <mxGeometry x="80" y="85" width="125" height="45" as="geometry" />
        </mxCell>
        <mxCell id="vrYzodw-wXzMlCgV3lVE-3" value="gongfu-service" style="swimlane;startSize=20;html=1;" vertex="1" parent="vrYzodw-wXzMlCgV3lVE-1">
          <mxGeometry x="290" y="20" width="410" height="725" as="geometry" />
        </mxCell>
        <mxCell id="vrYzodw-wXzMlCgV3lVE-10" value="分发供应" style="rounded=1;whiteSpace=wrap;html=1;" vertex="1" parent="vrYzodw-wXzMlCgV3lVE-3">
          <mxGeometry x="130" y="85" width="125" height="45" as="geometry" />
        </mxCell>
        <mxCell id="vrYzodw-wXzMlCgV3lVE-11" style="edgeStyle=orthogonalEdgeStyle;rounded=0;orthogonalLoop=1;jettySize=auto;html=1;exitX=1;exitY=0.5;exitDx=0;exitDy=0;" edge="1" parent="vrYzodw-wXzMlCgV3lVE-1" source="vrYzodw-wXzMlCgV3lVE-5" target="vrYzodw-wXzMlCgV3lVE-10">
          <mxGeometry relative="1" as="geometry" />
        </mxCell>
        <mxCell id="vrYzodw-wXzMlCgV3lVE-14" style="edgeStyle=orthogonalEdgeStyle;rounded=0;orthogonalLoop=1;jettySize=auto;html=1;exitX=1;exitY=0.5;exitDx=0;exitDy=0;entryX=0.5;entryY=0;entryDx=0;entryDy=0;" edge="1" parent="vrYzodw-wXzMlCgV3lVE-1" source="vrYzodw-wXzMlCgV3lVE-10" target="vrYzodw-wXzMlCgV3lVE-15">
          <mxGeometry relative="1" as="geometry">
            <mxPoint x="810" y="127.5" as="targetPoint" />
          </mxGeometry>
        </mxCell>
        <mxCell id="vrYzodw-wXzMlCgV3lVE-4" value="xxx-processor" style="swimlane;startSize=20;html=1;" vertex="1" parent="vrYzodw-wXzMlCgV3lVE-1">
          <mxGeometry x="700" y="20" width="480" height="725" as="geometry" />
        </mxCell>
        <mxCell id="vrYzodw-wXzMlCgV3lVE-17" style="edgeStyle=orthogonalEdgeStyle;rounded=0;orthogonalLoop=1;jettySize=auto;html=1;exitX=0;exitY=0.5;exitDx=0;exitDy=0;entryX=0.5;entryY=0;entryDx=0;entryDy=0;" edge="1" parent="vrYzodw-wXzMlCgV3lVE-4" source="vrYzodw-wXzMlCgV3lVE-15" target="vrYzodw-wXzMlCgV3lVE-19">
          <mxGeometry relative="1" as="geometry">
            <mxPoint x="60" y="235" as="targetPoint" />
          </mxGeometry>
        </mxCell>
        <mxCell id="vrYzodw-wXzMlCgV3lVE-18" value="是" style="edgeLabel;html=1;align=center;verticalAlign=middle;resizable=0;points=[];" vertex="1" connectable="0" parent="vrYzodw-wXzMlCgV3lVE-17">
          <mxGeometry x="-0.1912" relative="1" as="geometry">
            <mxPoint as="offset" />
          </mxGeometry>
        </mxCell>
        <mxCell id="vrYzodw-wXzMlCgV3lVE-15" value="非 ssdc供应?" style="rhombus;whiteSpace=wrap;html=1;" vertex="1" parent="vrYzodw-wXzMlCgV3lVE-4">
          <mxGeometry x="200" y="130" width="100" height="82.5" as="geometry" />
        </mxCell>
        <mxCell id="vrYzodw-wXzMlCgV3lVE-21" style="edgeStyle=orthogonalEdgeStyle;rounded=0;orthogonalLoop=1;jettySize=auto;html=1;exitX=0.5;exitY=1;exitDx=0;exitDy=0;" edge="1" parent="vrYzodw-wXzMlCgV3lVE-4" source="vrYzodw-wXzMlCgV3lVE-19">
          <mxGeometry relative="1" as="geometry">
            <mxPoint x="65" y="315" as="targetPoint" />
          </mxGeometry>
        </mxCell>
        <mxCell id="vrYzodw-wXzMlCgV3lVE-19" value="不做任何处理，原样返回" style="rounded=0;whiteSpace=wrap;html=1;" vertex="1" parent="vrYzodw-wXzMlCgV3lVE-4">
          <mxGeometry x="10" y="235" width="110" height="45" as="geometry" />
        </mxCell>
        <mxCell id="vrYzodw-wXzMlCgV3lVE-22" value="返回搜索数据" style="rounded=1;whiteSpace=wrap;html=1;" vertex="1" parent="vrYzodw-wXzMlCgV3lVE-4">
          <mxGeometry x="5" y="315" width="120" height="45" as="geometry" />
        </mxCell>
      </root>
    </mxGraphModel>
  </diagram>
</mxfile>
